<svg width="24" height="28" viewBox="0 0 24 28" fill="none" xmlns="http://www.w3.org/2000/svg">
<path d="M3.81819 5.74609C3.36632 5.74609 3.00001 6.11241 3.00001 6.56428C3.00001 7.01615 3.36632 7.38246 3.81819 7.38246L20.1818 7.38246C20.6337 7.38246 21 7.01615 21 6.56428C21 6.11241 20.6337 5.74609 20.1818 5.74609L3.81819 5.74609Z" fill="#333334"/>
<path d="M3.79675 11.6489C3.34503 11.6608 2.98845 12.0365 3.00029 12.4883C3.01213 12.94 3.38791 13.2966 3.83963 13.2847L20.1818 13.2851C20.6337 13.2851 21 12.9188 21 12.4669C21 12.015 20.6337 11.6487 20.1818 11.6487L3.79675 11.6489Z" fill="#333334"/>
<path d="M3.81819 17.5512C3.36632 17.5512 3.00001 17.9175 3.00001 18.3694C3.00001 18.8212 3.36632 19.1875 3.81819 19.1875L20.1818 19.1875C20.6337 19.1875 21 18.8212 21 18.3694C21 17.9175 20.6337 17.5512 20.1818 17.5512L3.81819 17.5512Z" fill="#333334"/>
</svg>
